# xmcd
#
# Track frame offsets:
#	150
#	12494
#	25727
#	37190
#	52440
#	72495
#	92429
#	105404
#	113063
#	126278
#	138824
#	159061
#	170784
#	185774
#	199068
#	208972
#	220737
#	237006
#	251240
#	262630
#	273053
#	287001
#
# Disc length: 4015 seconds
#
# Revision: 1
# Processed by: cddbd v1.5.2PL0 Copyright (c) Steve Scherf et al.
# Submitted via: audiograbber 1.83.01
#
DISCID=420fad16
DTITLE=E. H. King Music - E. H. King Music 093
DYEAR=2009
DGENRE=Country
TTITLE0=Knock, Knock  - Lori Star
TTITLE1=Hang In Tree - John Restas
TTITLE2=If I Weren´t So Old  - T J Murr
TTITLE3=Doin The Pencil Boogie  - Danny Mack
TTITLE4=Angels Everwhere  - Kitty Houston
TTITLE5=Why Ask Why  - Phil Coley
TTITLE6=She´s A Real Strong Memory  - Don Powell
TTITLE7=Singing King  - David Fox
TTITLE8=Singing For Jesus  - Ann Webb
TTITLE9=Vicous Cheryl  - David Fox
TTITLE10=Gentlemen Prefer Bonds - Roger Eydenburgh
TTITLE11=Ode To Jimmie Rogers  - Larry Hopkins
TTITLE12=When Peshtigo Burned  - Kitty Houston
TTITLE13=Kelly Green Jelly Beans  - Sonny Payne
TTITLE14=Too Weak To Weep  - David Fox
TTITLE15=Kissin Katie At The Gate  - Ray R Jones
TTITLE16=Feeling Lost Again  - Loman Craig
TTITLE17=Your Decimals Miss The Point - Loman Craig
TTITLE18=Can´t Fall From The Ground  - William Sherr
TTITLE19=Pain, Pain Go Away  - Tammy Powell
TTITLE20=Look Ma, 2 Hands  - Tammy Powell
TTITLE21=Roses  - Franky Lee
EXTD=
EXTT0=
EXTT1=
EXTT2=
EXTT3=
EXTT4=
EXTT5=
EXTT6=
EXTT7=
EXTT8=
EXTT9=
EXTT10=
EXTT11=
EXTT12=
EXTT13=
EXTT14=
EXTT15=
EXTT16=
EXTT17=
EXTT18=
EXTT19=
EXTT20=
EXTT21=
PLAYORDER=
